<?xml version="1.0" encoding="UTF-8"?>
<!DOCTYPE svg PUBLIC "-//W3C//DTD SVG 1.1//EN" "http://www.w3.org/Graphics/SVG/1.1/DTD/svg11.dtd">
<!-- Creator: CorelDRAW Home & Student 2018 (Keine kommerzielle Nutzung) -->
<svg xmlns="http://www.w3.org/2000/svg" xml:space="preserve" width="16.5961mm" height="4.7642mm" version="1.1" style="shape-rendering:geometricPrecision; text-rendering:geometricPrecision; image-rendering:optimizeQuality; fill-rule:evenodd; clip-rule:evenodd"
viewBox="0 0 237.41 68.15"
 xmlns:xlink="http://www.w3.org/1999/xlink">
 <defs>
  <style type="text/css">
   <![CDATA[
    .str0 {stroke:black;stroke-width:2.86;stroke-miterlimit:22.9256}
    .fil0 {fill:#FFCC00}
   ]]>
  </style>
 </defs>
 <g id="Ebene_x0020_1">
  <metadata id="CorelCorpID_0Corel-Layer"/>
  <g id="_533250608">
   <polygon class="fil0 str0" points="118.41,4.27 126.62,27.35 153.36,27.3 131.7,41.52 140.01,64.58 118.41,50.28 96.8,64.58 105.11,41.52 83.45,27.3 110.19,27.35 "/>
   <polygon class="fil0 str0" points="39.76,4.27 47.97,27.35 74.72,27.3 53.05,41.52 61.37,64.58 39.76,50.28 18.15,64.58 26.47,41.52 4.8,27.3 31.54,27.35 "/>
   <polygon class="fil0 str0" points="197.65,4.27 205.87,27.35 232.61,27.3 210.95,41.52 219.26,64.58 197.65,50.28 176.05,64.58 184.36,41.52 162.69,27.3 189.44,27.35 "/>
  </g>
 </g>
</svg>
