<?xml version="1.0" encoding="UTF-8"?>
<!DOCTYPE svg PUBLIC "-//W3C//DTD SVG 1.1//EN" "http://www.w3.org/Graphics/SVG/1.1/DTD/svg11.dtd">
<!-- Creator: CorelDRAW Home & Student 2018 (Keine kommerzielle Nutzung) -->
<svg xmlns="http://www.w3.org/2000/svg" xml:space="preserve" width="27.648mm" height="4.7642mm" version="1.1" style="shape-rendering:geometricPrecision; text-rendering:geometricPrecision; image-rendering:optimizeQuality; fill-rule:evenodd; clip-rule:evenodd"
viewBox="0 0 659.67 113.67"
 xmlns:xlink="http://www.w3.org/1999/xlink">
 <defs>
  <style type="text/css">
   <![CDATA[
    .str0 {stroke:black;stroke-width:4.77;stroke-miterlimit:22.9256}
    .fil0 {fill:#99FF00}
   ]]>
  </style>
 </defs>
 <g id="Ebene_x0020_1">
  <metadata id="CorelCorpID_0Corel-Layer"/>
  <g id="_527904880">
   <polygon class="fil0 str0" points="197.48,7.11 211.19,45.62 255.79,45.54 219.65,69.26 233.52,107.71 197.48,83.87 161.45,107.71 175.31,69.26 139.18,45.54 183.78,45.62 "/>
   <polygon class="fil0 str0" points="66.31,7.11 80.01,45.62 124.62,45.54 88.48,69.26 102.35,107.71 66.31,83.87 30.28,107.71 44.14,69.26 8,45.54 52.61,45.62 "/>
   <polygon class="fil0 str0" points="461.6,7.11 475.3,45.62 519.91,45.54 483.77,69.26 497.64,107.71 461.6,83.87 425.56,107.71 439.43,69.26 403.29,45.54 447.9,45.62 "/>
   <polygon class="fil0 str0" points="329.66,7.11 343.36,45.62 387.97,45.54 351.83,69.26 365.7,107.71 329.66,83.87 293.62,107.71 307.49,69.26 271.35,45.54 315.96,45.62 "/>
   <polygon class="fil0 str0" points="593.35,7.11 607.06,45.62 651.66,45.54 615.52,69.26 629.39,107.71 593.35,83.87 557.32,107.71 571.18,69.26 535.04,45.54 579.65,45.62 "/>
  </g>
 </g>
</svg>
