<?xml version="1.0" encoding="UTF-8"?>
<!DOCTYPE svg PUBLIC "-//W3C//DTD SVG 1.1//EN" "http://www.w3.org/Graphics/SVG/1.1/DTD/svg11.dtd">
<!-- Creator: CorelDRAW Home & Student 2018 (Keine kommerzielle Nutzung) -->
<svg xmlns="http://www.w3.org/2000/svg" xml:space="preserve" width="24.5824mm" height="24.3989mm" version="1.1" style="shape-rendering:geometricPrecision; text-rendering:geometricPrecision; image-rendering:optimizeQuality; fill-rule:evenodd; clip-rule:evenodd"
viewBox="0 0 521.57 517.68"
 xmlns:xlink="http://www.w3.org/1999/xlink">
 <defs>
  <style type="text/css">
   <![CDATA[
    .str2 {stroke:#E6E6E6;stroke-width:21.22;stroke-miterlimit:22.9256}
    .str0 {stroke:#CCCCFF;stroke-width:10.61;stroke-miterlimit:22.9256}
    .str1 {stroke:#CCCCCC;stroke-width:4.24;stroke-miterlimit:22.9256}
    .fil0 {fill:none}
    .fil2 {fill:none;fill-rule:nonzero}
    .fil1 {fill:yellow}
   ]]>
  </style>
 </defs>
 <g id="Ebene_x0020_1">
  <metadata id="CorelCorpID_0Corel-Layer"/>
  <g id="_528663184">
   <path class="fil0 str0" d="M65.63 237c50.68,38 101.36,76 146.92,67.37 45.57,-8.63 86.02,-63.9 129.48,-75.13 43.46,-11.23 89.93,21.59 113.46,37.92 23.53,16.33 24.11,16.18 24.69,16.03"/>
   <path class="fil0 str0" d="M77 404.82c50.68,38 101.36,76 146.92,67.37 45.56,-8.63 86.02,-63.9 129.48,-75.13 43.46,-11.23 89.93,21.58 113.46,37.92 23.53,16.33 24.11,16.18 24.69,16.03"/>
   <path class="fil0 str0" d="M74.74 354.31c50.68,38 101.36,76 146.92,67.37 45.57,-8.63 86.02,-63.9 129.48,-75.13 43.46,-11.23 89.93,21.58 113.46,37.92 23.53,16.33 24.11,16.18 24.69,16.03"/>
   <path class="fil0 str0" d="M67.77 294.26c50.68,38 101.36,76 146.92,67.37 45.57,-8.63 86.02,-63.9 129.48,-75.13 43.46,-11.23 89.93,21.59 113.46,37.92 23.53,16.33 24.11,16.18 24.69,16.03"/>
   <polygon class="fil1 str1" points="321.35,307.61 333.53,341.84 373.2,341.78 341.06,362.87 353.4,397.06 321.35,375.86 289.3,397.06 301.63,362.87 269.5,341.78 309.16,341.84 "/>
   <polygon class="fil1 str1" points="439.26,392.56 451.45,426.8 491.11,426.73 458.98,447.82 471.31,482.01 439.26,460.81 407.22,482.01 419.55,447.82 387.41,426.73 427.08,426.8 "/>
   <polygon class="fil1 str1" points="322.62,392.56 334.8,426.8 374.47,426.73 342.33,447.82 354.66,482.01 322.62,460.81 290.57,482.01 302.9,447.82 270.77,426.73 310.43,426.8 "/>
   <path class="fil2 str2" d="M510.96 507.07l0 -246.09 0 0 -250.18 -246.09 -250.18 246.09 0 0 0 246.09 500.35 0zm0 -123.05m0 -123.05m-125.09 -123.05m-250.17 0m-125.09 123.05m0 123.05m250.18 123.05"/>
  </g>
 </g>
</svg>
