<?xml version="1.0" encoding="UTF-8"?>
<!DOCTYPE svg PUBLIC "-//W3C//DTD SVG 1.1//EN" "http://www.w3.org/Graphics/SVG/1.1/DTD/svg11.dtd">
<!-- Creator: CorelDRAW Home & Student 2018 (Keine kommerzielle Nutzung) -->
<svg xmlns="http://www.w3.org/2000/svg" xml:space="preserve" width="22.126mm" height="4.7642mm" version="1.1" style="shape-rendering:geometricPrecision; text-rendering:geometricPrecision; image-rendering:optimizeQuality; fill-rule:evenodd; clip-rule:evenodd"
viewBox="0 0 420.83 90.61"
 xmlns:xlink="http://www.w3.org/1999/xlink">
 <defs>
  <style type="text/css">
   <![CDATA[
    .str0 {stroke:black;stroke-width:3.8;stroke-miterlimit:22.9256}
    .fil0 {fill:yellow}
   ]]>
  </style>
 </defs>
 <g id="Ebene_x0020_1">
  <metadata id="CorelCorpID_0Corel-Layer"/>
  <g id="_522695088">
   <polygon class="fil0 str0" points="157.43,5.67 168.35,36.36 203.91,36.3 175.1,55.21 186.16,85.86 157.43,66.86 128.7,85.86 139.75,55.21 110.95,36.3 146.5,36.36 "/>
   <polygon class="fil0 str0" points="52.86,5.67 63.79,36.36 99.34,36.3 70.54,55.21 81.59,85.86 52.86,66.86 24.13,85.86 35.19,55.21 6.38,36.3 41.94,36.36 "/>
   <polygon class="fil0 str0" points="367.97,5.67 378.9,36.36 414.45,36.3 385.65,55.21 396.7,85.86 367.97,66.86 339.25,85.86 350.3,55.21 321.49,36.3 357.05,36.36 "/>
   <polygon class="fil0 str0" points="262.79,5.67 273.72,36.36 309.28,36.3 280.47,55.21 291.52,85.86 262.79,66.86 234.07,85.86 245.12,55.21 216.31,36.3 251.87,36.36 "/>
  </g>
 </g>
</svg>
